<svg id="my-svg" width="100%" xmlns="http://www.w3.org/2000/svg" xmlns:xlink="http://www.w3.org/1999/xlink" class="erDiagram" style="max-width: 719.688px; background-color: white;" viewBox="0 0 719.6875 672.75" role="graphics-document document" aria-roledescription="er"><style>#my-svg{font-family:"trebuchet ms",verdana,arial,sans-serif;font-size:16px;fill:#000000;}@keyframes edge-animation-frame{from{stroke-dashoffset:0;}}@keyframes dash{to{stroke-dashoffset:0;}}#my-svg .edge-animation-slow{stroke-dasharray:9,5!important;stroke-dashoffset:900;animation:dash 50s linear infinite;stroke-linecap:round;}#my-svg .edge-animation-fast{stroke-dasharray:9,5!important;stroke-dashoffset:900;animation:dash 20s linear infinite;stroke-linecap:round;}#my-svg .error-icon{fill:#552222;}#my-svg .error-text{fill:#552222;stroke:#552222;}#my-svg .edge-thickness-normal{stroke-width:1px;}#my-svg .edge-thickness-thick{stroke-width:3.5px;}#my-svg .edge-pattern-solid{stroke-dasharray:0;}#my-svg .edge-thickness-invisible{stroke-width:0;fill:none;}#my-svg .edge-pattern-dashed{stroke-dasharray:3;}#my-svg .edge-pattern-dotted{stroke-dasharray:2;}#my-svg .marker{fill:#000000;stroke:#000000;}#my-svg .marker.cross{stroke:#000000;}#my-svg svg{font-family:"trebuchet ms",verdana,arial,sans-serif;font-size:16px;}#my-svg p{margin:0;}#my-svg .entityBox{fill:#cde498;stroke:#13540c;}#my-svg .relationshipLabelBox{fill:hsl(78.1578947368, 58.4615384615%, 84.5098039216%);opacity:0.7;background-color:hsl(78.1578947368, 58.4615384615%, 84.5098039216%);}#my-svg .relationshipLabelBox rect{opacity:0.5;}#my-svg .labelBkg{background-color:rgba(224.6153846155, 238.5923076923, 192.4076923078, 0.5);}#my-svg .edgeLabel .label{fill:#13540c;font-size:14px;}#my-svg .label{font-family:"trebuchet ms",verdana,arial,sans-serif;color:#000000;}#my-svg .edge-pattern-dashed{stroke-dasharray:8,8;}#my-svg .node rect,#my-svg .node circle,#my-svg .node ellipse,#my-svg .node polygon{fill:#cde498;stroke:#13540c;stroke-width:1px;}#my-svg .relationshipLine{stroke:#000000;stroke-width:1;fill:none;}#my-svg .marker{fill:none!important;stroke:#000000!important;stroke-width:1;}#my-svg :root{--mermaid-font-family:"trebuchet ms",verdana,arial,sans-serif;}</style><g><defs><marker id="my-svg_er-onlyOneStart" class="marker onlyOne er" refX="0" refY="9" markerWidth="18" markerHeight="18" orient="auto"><path d="M9,0 L9,18 M15,0 L15,18"/></marker></defs><defs><marker id="my-svg_er-onlyOneEnd" class="marker onlyOne er" refX="18" refY="9" markerWidth="18" markerHeight="18" orient="auto"><path d="M3,0 L3,18 M9,0 L9,18"/></marker></defs><defs><marker id="my-svg_er-zeroOrOneStart" class="marker zeroOrOne er" refX="0" refY="9" markerWidth="30" markerHeight="18" orient="auto"><circle fill="white" cx="21" cy="9" r="6"/><path d="M9,0 L9,18"/></marker></defs><defs><marker id="my-svg_er-zeroOrOneEnd" class="marker zeroOrOne er" refX="30" refY="9" markerWidth="30" markerHeight="18" orient="auto"><circle fill="white" cx="9" cy="9" r="6"/><path d="M21,0 L21,18"/></marker></defs><defs><marker id="my-svg_er-oneOrMoreStart" class="marker oneOrMore er" refX="18" refY="18" markerWidth="45" markerHeight="36" orient="auto"><path d="M0,18 Q 18,0 36,18 Q 18,36 0,18 M42,9 L42,27"/></marker></defs><defs><marker id="my-svg_er-oneOrMoreEnd" class="marker oneOrMore er" refX="27" refY="18" markerWidth="45" markerHeight="36" orient="auto"><path d="M3,9 L3,27 M9,18 Q27,0 45,18 Q27,36 9,18"/></marker></defs><defs><marker id="my-svg_er-zeroOrMoreStart" class="marker zeroOrMore er" refX="18" refY="18" markerWidth="57" markerHeight="36" orient="auto"><circle fill="white" cx="48" cy="18" r="6"/><path d="M0,18 Q18,0 36,18 Q18,36 0,18"/></marker></defs><defs><marker id="my-svg_er-zeroOrMoreEnd" class="marker zeroOrMore er" refX="39" refY="18" markerWidth="57" markerHeight="36" orient="auto"><circle fill="white" cx="9" cy="18" r="6"/><path d="M21,18 Q39,0 57,18 Q39,36 21,18"/></marker></defs><g class="root"><g class="clusters"/><g class="edgePaths"><path d="M230.109,207.885L215.732,218.612C201.354,229.34,172.599,250.795,158.221,280.627C143.844,310.458,143.844,348.667,143.844,367.771L143.844,386.875" id="id_entity-Borrowing-2_entity-Borrower-1_0" class="edge-thickness-normal edge-pattern-solid relationshipLine" style="undefined;;;undefined" data-edge="true" data-et="edge" data-id="id_entity-Borrowing-2_entity-Borrower-1_0" data-points="W3sieCI6MjMwLjEwOTM3NSwieSI6MjA3Ljg4NDY4NTkwMjY1OTQ0fSx7IngiOjE0My44NDM3NSwieSI6MjcyLjI1fSx7IngiOjE0My44NDM3NSwieSI6Mzg2Ljg3NX1d" marker-start="url(#my-svg_er-zeroOrMoreStart)" marker-end="url(#my-svg_er-onlyOneEnd)"/><path d="M479.422,207.885L493.799,218.612C508.177,229.34,536.932,250.795,551.31,269.939C565.688,289.083,565.688,305.917,565.688,314.333L565.688,322.75" id="id_entity-Borrowing-2_entity-Book-0_1" class="edge-thickness-normal edge-pattern-solid relationshipLine" style="undefined;;;undefined" data-edge="true" data-et="edge" data-id="id_entity-Borrowing-2_entity-Book-0_1" data-points="W3sieCI6NDc5LjQyMTg3NSwieSI6MjA3Ljg4NDY4NTkwMjY1OTQ0fSx7IngiOjU2NS42ODc1LCJ5IjoyNzIuMjV9LHsieCI6NTY1LjY4NzUsInkiOjMyMi43NX1d" marker-start="url(#my-svg_er-zeroOrMoreStart)" marker-end="url(#my-svg_er-onlyOneEnd)"/></g><g class="edgeLabels"><g class="edgeLabel" transform="translate(143.84375, 272.25)"><g class="label" data-id="id_entity-Borrowing-2_entity-Borrower-1_0" transform="translate(-28.6015625, -10.5)"><foreignObject width="57.203125" height="21"><div xmlns="http://www.w3.org/1999/xhtml" class="labelBkg" style="display: table-cell; white-space: nowrap; line-height: 1.5; max-width: 200px; text-align: center;"><span class="edgeLabel"><p>borrower</p></span></div></foreignObject></g></g><g class="edgeLabel" transform="translate(565.6875, 272.25)"><g class="label" data-id="id_entity-Borrowing-2_entity-Book-0_1" transform="translate(-14.9453125, -10.5)"><foreignObject width="29.890625" height="21"><div xmlns="http://www.w3.org/1999/xhtml" class="labelBkg" style="display: table-cell; white-space: nowrap; line-height: 1.5; max-width: 200px; text-align: center;"><span class="edgeLabel"><p>book</p></span></div></foreignObject></g></g></g><g class="nodes"><g class="node default" id="entity-Book-0" transform="translate(565.6875, 493.75)"><g style=""><path d="M-146 -171 L146 -171 L146 171 L-146 171" stroke="none" stroke-width="0" fill="#cde498"/><path d="M-146 -171 C-34.46665784006842 -171, 77.06668431986316 -171, 146 -171 M-146 -171 C-67.38918847473843 -171, 11.221623050523135 -171, 146 -171 M146 -171 C146 -47.93430438252835, 146 75.1313912349433, 146 171 M146 -171 C146 -74.83117942099719, 146 21.337641158005624, 146 171 M146 171 C75.87646132461998 171, 5.752922649239963 171, -146 171 M146 171 C35.224926635517235 171, -75.55014672896553 171, -146 171 M-146 171 C-146 81.82776683208118, -146 -7.344466335837637, -146 -171 M-146 171 C-146 87.30684828618318, -146 3.613696572366365, -146 -171" stroke="#13540c" stroke-width="1.3" fill="none" stroke-dasharray="0 0"/></g><g style="" class="row-rect-odd"><path d="M-146 -128.25 L146 -128.25 L146 -85.5 L-146 -85.5" stroke="none" stroke-width="0" fill="hsl(78.1578947368, 58.4615384615%, 100%)"/><path d="M-146 -128.25 C-53.53620623494314 -128.25, 38.927587530113726 -128.25, 146 -128.25 M-146 -128.25 C-84.37269154518576 -128.25, -22.74538309037152 -128.25, 146 -128.25 M146 -128.25 C146 -117.9003928114903, 146 -107.55078562298061, 146 -85.5 M146 -128.25 C146 -112.96107273775192, 146 -97.67214547550384, 146 -85.5 M146 -85.5 C66.24263110477916 -85.5, -13.514737790441671 -85.5, -146 -85.5 M146 -85.5 C85.88566902398935 -85.5, 25.771338047978716 -85.5, -146 -85.5 M-146 -85.5 C-146 -102.22445374212958, -146 -118.94890748425917, -146 -128.25 M-146 -85.5 C-146 -100.97499047823312, -146 -116.44998095646625, -146 -128.25" stroke="#13540c" stroke-width="1.3" fill="none" stroke-dasharray="0 0"/></g><g style="" class="row-rect-even"><path d="M-146 -85.5 L146 -85.5 L146 -42.75 L-146 -42.75" stroke="none" stroke-width="0" fill="hsl(78.1578947368, 58.4615384615%, 94.5098039216%)"/><path d="M-146 -85.5 C-87.02636870412397 -85.5, -28.05273740824795 -85.5, 146 -85.5 M-146 -85.5 C-54.74195775772202 -85.5, 36.51608448455596 -85.5, 146 -85.5 M146 -85.5 C146 -73.6909283108428, 146 -61.88185662168563, 146 -42.75 M146 -85.5 C146 -68.48687679252166, 146 -51.473753585043326, 146 -42.75 M146 -42.75 C49.36010197494734 -42.75, -47.27979605010532 -42.75, -146 -42.75 M146 -42.75 C60.098204100475016 -42.75, -25.80359179904997 -42.75, -146 -42.75 M-146 -42.75 C-146 -55.11865121354537, -146 -67.48730242709074, -146 -85.5 M-146 -42.75 C-146 -57.09272741704826, -146 -71.43545483409652, -146 -85.5" stroke="#13540c" stroke-width="1.3" fill="none" stroke-dasharray="0 0"/></g><g style="" class="row-rect-odd"><path d="M-146 -42.75 L146 -42.75 L146 0 L-146 0" stroke="none" stroke-width="0" fill="hsl(78.1578947368, 58.4615384615%, 100%)"/><path d="M-146 -42.75 C-86.0013672387918 -42.75, -26.002734477583587 -42.75, 146 -42.75 M-146 -42.75 C-60.06791429950222 -42.75, 25.86417140099556 -42.75, 146 -42.75 M146 -42.75 C146 -27.330775895967456, 146 -11.911551791934908, 146 0 M146 -42.75 C146 -29.023312638466308, 146 -15.296625276932613, 146 0 M146 0 C87.35567648342362 0, 28.71135296684723 0, -146 0 M146 0 C73.54555977053543 0, 1.0911195410708672 0, -146 0 M-146 0 C-146 -12.868629315228635, -146 -25.73725863045727, -146 -42.75 M-146 0 C-146 -13.487897233072209, -146 -26.975794466144418, -146 -42.75" stroke="#13540c" stroke-width="1.3" fill="none" stroke-dasharray="0 0"/></g><g style="" class="row-rect-even"><path d="M-146 0 L146 0 L146 42.75 L-146 42.75" stroke="none" stroke-width="0" fill="hsl(78.1578947368, 58.4615384615%, 94.5098039216%)"/><path d="M-146 0 C-65.2153790813399 0, 15.569241837320192 0, 146 0 M-146 0 C-86.31438297218425 0, -26.628765944368496 0, 146 0 M146 0 C146 11.861529401312415, 146 23.72305880262483, 146 42.75 M146 0 C146 10.59308519056547, 146 21.18617038113094, 146 42.75 M146 42.75 C68.32329698118379 42.75, -9.353406037632425 42.75, -146 42.75 M146 42.75 C66.3898081179328 42.75, -13.220383764134397 42.75, -146 42.75 M-146 42.75 C-146 30.774852300105017, -146 18.799704600210035, -146 0 M-146 42.75 C-146 29.80959635127787, -146 16.869192702555743, -146 0" stroke="#13540c" stroke-width="1.3" fill="none" stroke-dasharray="0 0"/></g><g style="" class="row-rect-odd"><path d="M-146 42.75 L146 42.75 L146 85.5 L-146 85.5" stroke="none" stroke-width="0" fill="hsl(78.1578947368, 58.4615384615%, 100%)"/><path d="M-146 42.75 C-80.72153859470909 42.75, -15.443077189418176 42.75, 146 42.75 M-146 42.75 C-54.54800950319567 42.75, 36.903980993608656 42.75, 146 42.75 M146 42.75 C146 56.582428383813394, 146 70.41485676762679, 146 85.5 M146 42.75 C146 57.943284472096, 146 73.136568944192, 146 85.5 M146 85.5 C85.20601836921661 85.5, 24.412036738433216 85.5, -146 85.5 M146 85.5 C47.29987123074169 85.5, -51.40025753851663 85.5, -146 85.5 M-146 85.5 C-146 74.0263231759003, -146 62.55264635180061, -146 42.75 M-146 85.5 C-146 75.42424929292446, -146 65.34849858584892, -146 42.75" stroke="#13540c" stroke-width="1.3" fill="none" stroke-dasharray="0 0"/></g><g style="" class="row-rect-even"><path d="M-146 85.5 L146 85.5 L146 128.25 L-146 128.25" stroke="none" stroke-width="0" fill="hsl(78.1578947368, 58.4615384615%, 94.5098039216%)"/><path d="M-146 85.5 C-60.92105154180187 85.5, 24.157896916396254 85.5, 146 85.5 M-146 85.5 C-51.04487157038716 85.5, 43.91025685922568 85.5, 146 85.5 M146 85.5 C146 101.72178386941337, 146 117.94356773882673, 146 128.25 M146 85.5 C146 102.00537185412595, 146 118.51074370825191, 146 128.25 M146 128.25 C87.54600006399598 128.25, 29.092000127991952 128.25, -146 128.25 M146 128.25 C73.75360874735769 128.25, 1.507217494715377 128.25, -146 128.25 M-146 128.25 C-146 119.34997650022902, -146 110.44995300045804, -146 85.5 M-146 128.25 C-146 119.37033275077243, -146 110.49066550154487, -146 85.5" stroke="#13540c" stroke-width="1.3" fill="none" stroke-dasharray="0 0"/></g><g style="" class="row-rect-odd"><path d="M-146 128.25 L146 128.25 L146 171 L-146 171" stroke="none" stroke-width="0" fill="hsl(78.1578947368, 58.4615384615%, 100%)"/><path d="M-146 128.25 C-80.85566629414376 128.25, -15.711332588287519 128.25, 146 128.25 M-146 128.25 C-38.9602704388557 128.25, 68.0794591222886 128.25, 146 128.25 M146 128.25 C146 140.4020953095406, 146 152.5541906190812, 146 171 M146 128.25 C146 140.7167587340232, 146 153.18351746804635, 146 171 M146 171 C57.225565862955776 171, -31.54886827408845 171, -146 171 M146 171 C59.41221905303075 171, -27.175561893938493 171, -146 171 M-146 171 C-146 155.00428125615505, -146 139.0085625123101, -146 128.25 M-146 171 C-146 156.72687051204656, -146 142.4537410240931, -146 128.25" stroke="#13540c" stroke-width="1.3" fill="none" stroke-dasharray="0 0"/></g><g class="label name" transform="translate(-17.1484375, -161.625)" style=""><foreignObject width="34.296875" height="24"><div xmlns="http://www.w3.org/1999/xhtml" style="display: table-cell; white-space: nowrap; line-height: 1.5; max-width: 137px; text-align: start;"><span class="nodeLabel"><p>Book</p></span></div></foreignObject></g><g class="label attribute-type" transform="translate(-133.5, -118.875)" style=""><foreignObject width="19.546875" height="24"><div xmlns="http://www.w3.org/1999/xhtml" style="display: table-cell; white-space: nowrap; line-height: 1.5; max-width: 118px; text-align: start;"><span class="nodeLabel"><p>Int</p></span></div></foreignObject></g><g class="label attribute-name" transform="translate(-40.015625, -118.875)" style=""><foreignObject width="13.484375" height="24"><div xmlns="http://www.w3.org/1999/xhtml" style="display: table-cell; white-space: nowrap; line-height: 1.5; max-width: 113px; text-align: start;"><span class="nodeLabel"><p>id</p></span></div></foreignObject></g><g class="label attribute-keys" transform="translate(111.53125, -118.875)" style=""><foreignObject width="0" height="0"><div xmlns="http://www.w3.org/1999/xhtml" style="display: table-cell; white-space: nowrap; line-height: 1.5; max-width: 100px; text-align: start;"><span class="nodeLabel"></span></div></foreignObject></g><g class="label attribute-comment" transform="translate(111.53125, -118.875)" style=""><foreignObject width="21.96875" height="24"><div xmlns="http://www.w3.org/1999/xhtml" style="display: table-cell; white-space: nowrap; line-height: 1.5; max-width: 122px; text-align: start;"><span class="nodeLabel"><p>🗝️</p></span></div></foreignObject></g><g class="label attribute-type" transform="translate(-133.5, -76.125)" style=""><foreignObject width="41.59375" height="24"><div xmlns="http://www.w3.org/1999/xhtml" style="display: table-cell; white-space: nowrap; line-height: 1.5; max-width: 139px; text-align: start;"><span class="nodeLabel"><p>String</p></span></div></foreignObject></g><g class="label attribute-name" transform="translate(-40.015625, -76.125)" style=""><foreignObject width="30.703125" height="24"><div xmlns="http://www.w3.org/1999/xhtml" style="display: table-cell; white-space: nowrap; line-height: 1.5; max-width: 126px; text-align: start;"><span class="nodeLabel"><p>title</p></span></div></foreignObject></g><g class="label attribute-keys" transform="translate(111.53125, -76.125)" style=""><foreignObject width="0" height="0"><div xmlns="http://www.w3.org/1999/xhtml" style="display: table-cell; white-space: nowrap; line-height: 1.5; max-width: 100px; text-align: start;"><span class="nodeLabel"></span></div></foreignObject></g><g class="label attribute-comment" transform="translate(111.53125, -76.125)" style=""><foreignObject width="0" height="0"><div xmlns="http://www.w3.org/1999/xhtml" style="display: table-cell; white-space: nowrap; line-height: 1.5; max-width: 100px; text-align: start;"><span class="nodeLabel"></span></div></foreignObject></g><g class="label attribute-type" transform="translate(-133.5, -33.375)" style=""><foreignObject width="41.59375" height="24"><div xmlns="http://www.w3.org/1999/xhtml" style="display: table-cell; white-space: nowrap; line-height: 1.5; max-width: 139px; text-align: start;"><span class="nodeLabel"><p>String</p></span></div></foreignObject></g><g class="label attribute-name" transform="translate(-40.015625, -33.375)" style=""><foreignObject width="47.046875" height="24"><div xmlns="http://www.w3.org/1999/xhtml" style="display: table-cell; white-space: nowrap; line-height: 1.5; max-width: 142px; text-align: start;"><span class="nodeLabel"><p>author</p></span></div></foreignObject></g><g class="label attribute-keys" transform="translate(111.53125, -33.375)" style=""><foreignObject width="0" height="0"><div xmlns="http://www.w3.org/1999/xhtml" style="display: table-cell; white-space: nowrap; line-height: 1.5; max-width: 100px; text-align: start;"><span class="nodeLabel"></span></div></foreignObject></g><g class="label attribute-comment" transform="translate(111.53125, -33.375)" style=""><foreignObject width="0" height="0"><div xmlns="http://www.w3.org/1999/xhtml" style="display: table-cell; white-space: nowrap; line-height: 1.5; max-width: 100px; text-align: start;"><span class="nodeLabel"></span></div></foreignObject></g><g class="label attribute-type" transform="translate(-133.5, 9.375)" style=""><foreignObject width="41.59375" height="24"><div xmlns="http://www.w3.org/1999/xhtml" style="display: table-cell; white-space: nowrap; line-height: 1.5; max-width: 139px; text-align: start;"><span class="nodeLabel"><p>String</p></span></div></foreignObject></g><g class="label attribute-name" transform="translate(-40.015625, 9.375)" style=""><foreignObject width="28.703125" height="24"><div xmlns="http://www.w3.org/1999/xhtml" style="display: table-cell; white-space: nowrap; line-height: 1.5; max-width: 128px; text-align: start;"><span class="nodeLabel"><p>isbn</p></span></div></foreignObject></g><g class="label attribute-keys" transform="translate(111.53125, 9.375)" style=""><foreignObject width="0" height="0"><div xmlns="http://www.w3.org/1999/xhtml" style="display: table-cell; white-space: nowrap; line-height: 1.5; max-width: 100px; text-align: start;"><span class="nodeLabel"></span></div></foreignObject></g><g class="label attribute-comment" transform="translate(111.53125, 9.375)" style=""><foreignObject width="0" height="0"><div xmlns="http://www.w3.org/1999/xhtml" style="display: table-cell; white-space: nowrap; line-height: 1.5; max-width: 100px; text-align: start;"><span class="nodeLabel"></span></div></foreignObject></g><g class="label attribute-type" transform="translate(-133.5, 52.125)" style=""><foreignObject width="19.546875" height="24"><div xmlns="http://www.w3.org/1999/xhtml" style="display: table-cell; white-space: nowrap; line-height: 1.5; max-width: 118px; text-align: start;"><span class="nodeLabel"><p>Int</p></span></div></foreignObject></g><g class="label attribute-name" transform="translate(-40.015625, 52.125)" style=""><foreignObject width="126.546875" height="24"><div xmlns="http://www.w3.org/1999/xhtml" style="display: table-cell; white-space: nowrap; line-height: 1.5; max-width: 215px; text-align: start;"><span class="nodeLabel"><p>availableQuantity</p></span></div></foreignObject></g><g class="label attribute-keys" transform="translate(111.53125, 52.125)" style=""><foreignObject width="0" height="0"><div xmlns="http://www.w3.org/1999/xhtml" style="display: table-cell; white-space: nowrap; line-height: 1.5; max-width: 100px; text-align: start;"><span class="nodeLabel"></span></div></foreignObject></g><g class="label attribute-comment" transform="translate(111.53125, 52.125)" style=""><foreignObject width="0" height="0"><div xmlns="http://www.w3.org/1999/xhtml" style="display: table-cell; white-space: nowrap; line-height: 1.5; max-width: 100px; text-align: start;"><span class="nodeLabel"></span></div></foreignObject></g><g class="label attribute-type" transform="translate(-133.5, 94.875)" style=""><foreignObject width="41.59375" height="24"><div xmlns="http://www.w3.org/1999/xhtml" style="display: table-cell; white-space: nowrap; line-height: 1.5; max-width: 139px; text-align: start;"><span class="nodeLabel"><p>String</p></span></div></foreignObject></g><g class="label attribute-name" transform="translate(-40.015625, 94.875)" style=""><foreignObject width="95.828125" height="24"><div xmlns="http://www.w3.org/1999/xhtml" style="display: table-cell; white-space: nowrap; line-height: 1.5; max-width: 189px; text-align: start;"><span class="nodeLabel"><p>shelfLocation</p></span></div></foreignObject></g><g class="label attribute-keys" transform="translate(111.53125, 94.875)" style=""><foreignObject width="0" height="0"><div xmlns="http://www.w3.org/1999/xhtml" style="display: table-cell; white-space: nowrap; line-height: 1.5; max-width: 100px; text-align: start;"><span class="nodeLabel"></span></div></foreignObject></g><g class="label attribute-comment" transform="translate(111.53125, 94.875)" style=""><foreignObject width="0" height="0"><div xmlns="http://www.w3.org/1999/xhtml" style="display: table-cell; white-space: nowrap; line-height: 1.5; max-width: 100px; text-align: start;"><span class="nodeLabel"></span></div></foreignObject></g><g class="label attribute-type" transform="translate(-133.5, 137.625)" style=""><foreignObject width="68.484375" height="24"><div xmlns="http://www.w3.org/1999/xhtml" style="display: table-cell; white-space: nowrap; line-height: 1.5; max-width: 164px; text-align: start;"><span class="nodeLabel"><p>DateTime</p></span></div></foreignObject></g><g class="label attribute-name" transform="translate(-40.015625, 137.625)" style=""><foreignObject width="71.046875" height="24"><div xmlns="http://www.w3.org/1999/xhtml" style="display: table-cell; white-space: nowrap; line-height: 1.5; max-width: 163px; text-align: start;"><span class="nodeLabel"><p>createdAt</p></span></div></foreignObject></g><g class="label attribute-keys" transform="translate(111.53125, 137.625)" style=""><foreignObject width="0" height="0"><div xmlns="http://www.w3.org/1999/xhtml" style="display: table-cell; white-space: nowrap; line-height: 1.5; max-width: 100px; text-align: start;"><span class="nodeLabel"></span></div></foreignObject></g><g class="label attribute-comment" transform="translate(111.53125, 137.625)" style=""><foreignObject width="0" height="0"><div xmlns="http://www.w3.org/1999/xhtml" style="display: table-cell; white-space: nowrap; line-height: 1.5; max-width: 100px; text-align: start;"><span class="nodeLabel"></span></div></foreignObject></g><g class="divider"><path d="M-146 -128.25 C-43.764847080912745 -128.25, 58.47030583817451 -128.25, 146 -128.25 M-146 -128.25 C-34.45491567380425 -128.25, 77.0901686523915 -128.25, 146 -128.25" stroke="#13540c" stroke-width="1.3" fill="none" stroke-dasharray="0 0"/></g><g class="divider"><path d="M-52.515625 -128.25 C-52.515625 -67.02619917224868, -52.515625 -5.802398344497362, -52.515625 171 M-52.515625 -128.25 C-52.515625 -37.00301996134161, -52.515625 54.243960077316785, -52.515625 171" stroke="#13540c" stroke-width="1.3" fill="none" stroke-dasharray="0 0"/></g><g class="divider"><path d="M99.03125 -128.25 C99.03125 -27.830081438145868, 99.03125 72.58983712370826, 99.03125 171 M99.03125 -128.25 C99.03125 -45.887270662131, 99.03125 36.475458675738, 99.03125 171" stroke="#13540c" stroke-width="1.3" fill="none" stroke-dasharray="0 0"/></g><g class="divider"><path d="M-146 -128.25 C-66.48791358711955 -128.25, 13.0241728257609 -128.25, 146 -128.25 M-146 -128.25 C-72.44943831980665 -128.25, 1.1011233603867083 -128.25, 146 -128.25" stroke="#13540c" stroke-width="1.3" fill="none" stroke-dasharray="0 0"/></g></g><g class="node default" id="entity-Borrower-1" transform="translate(143.84375, 493.75)"><g style=""><path d="M-135.84375 -106.875 L135.84375 -106.875 L135.84375 106.875 L-135.84375 106.875" stroke="none" stroke-width="0" fill="#cde498"/><path d="M-135.84375 -106.875 C-50.856468332601395 -106.875, 34.13081333479721 -106.875, 135.84375 -106.875 M-135.84375 -106.875 C-35.354381060134656 -106.875, 65.13498787973069 -106.875, 135.84375 -106.875 M135.84375 -106.875 C135.84375 -30.276894809012163, 135.84375 46.321210381975675, 135.84375 106.875 M135.84375 -106.875 C135.84375 -56.66265302555505, 135.84375 -6.450306051110104, 135.84375 106.875 M135.84375 106.875 C37.52998020781624 106.875, -60.783789584367526 106.875, -135.84375 106.875 M135.84375 106.875 C75.40680990216833 106.875, 14.969869804336682 106.875, -135.84375 106.875 M-135.84375 106.875 C-135.84375 42.61292875938537, -135.84375 -21.649142481229262, -135.84375 -106.875 M-135.84375 106.875 C-135.84375 30.60117284519714, -135.84375 -45.67265430960572, -135.84375 -106.875" stroke="#13540c" stroke-width="1.3" fill="none" stroke-dasharray="0 0"/></g><g style="" class="row-rect-odd"><path d="M-135.84375 -64.125 L135.84375 -64.125 L135.84375 -21.375 L-135.84375 -21.375" stroke="none" stroke-width="0" fill="hsl(78.1578947368, 58.4615384615%, 100%)"/><path d="M-135.84375 -64.125 C-58.41573424338725 -64.125, 19.012281513225503 -64.125, 135.84375 -64.125 M-135.84375 -64.125 C-80.00143032081775 -64.125, -24.159110641635507 -64.125, 135.84375 -64.125 M135.84375 -64.125 C135.84375 -50.44794601332652, 135.84375 -36.770892026653044, 135.84375 -21.375 M135.84375 -64.125 C135.84375 -50.68423295404408, 135.84375 -37.243465908088154, 135.84375 -21.375 M135.84375 -21.375 C39.60449046926904 -21.375, -56.634769061461924 -21.375, -135.84375 -21.375 M135.84375 -21.375 C74.96663360545858 -21.375, 14.089517210917151 -21.375, -135.84375 -21.375 M-135.84375 -21.375 C-135.84375 -37.99065172510507, -135.84375 -54.60630345021014, -135.84375 -64.125 M-135.84375 -21.375 C-135.84375 -30.040308833318036, -135.84375 -38.70561766663607, -135.84375 -64.125" stroke="#13540c" stroke-width="1.3" fill="none" stroke-dasharray="0 0"/></g><g style="" class="row-rect-even"><path d="M-135.84375 -21.375 L135.84375 -21.375 L135.84375 21.375 L-135.84375 21.375" stroke="none" stroke-width="0" fill="hsl(78.1578947368, 58.4615384615%, 94.5098039216%)"/><path d="M-135.84375 -21.375 C-40.259073717168235 -21.375, 55.32560256566353 -21.375, 135.84375 -21.375 M-135.84375 -21.375 C-77.73425555273371 -21.375, -19.624761105467414 -21.375, 135.84375 -21.375 M135.84375 -21.375 C135.84375 -4.508437765600515, 135.84375 12.35812446879897, 135.84375 21.375 M135.84375 -21.375 C135.84375 -11.932992963982564, 135.84375 -2.490985927965127, 135.84375 21.375 M135.84375 21.375 C72.49585765144477 21.375, 9.147965302889531 21.375, -135.84375 21.375 M135.84375 21.375 C33.49330560548769 21.375, -68.85713878902462 21.375, -135.84375 21.375 M-135.84375 21.375 C-135.84375 5.790388888419054, -135.84375 -9.794222223161892, -135.84375 -21.375 M-135.84375 21.375 C-135.84375 6.150351309776534, -135.84375 -9.074297380446932, -135.84375 -21.375" stroke="#13540c" stroke-width="1.3" fill="none" stroke-dasharray="0 0"/></g><g style="" class="row-rect-odd"><path d="M-135.84375 21.375 L135.84375 21.375 L135.84375 64.125 L-135.84375 64.125" stroke="none" stroke-width="0" fill="hsl(78.1578947368, 58.4615384615%, 100%)"/><path d="M-135.84375 21.375 C-79.74783872794131 21.375, -23.651927455882642 21.375, 135.84375 21.375 M-135.84375 21.375 C-76.01010985095243 21.375, -16.176469701904864 21.375, 135.84375 21.375 M135.84375 21.375 C135.84375 31.45503036008845, 135.84375 41.5350607201769, 135.84375 64.125 M135.84375 21.375 C135.84375 32.83522845436228, 135.84375 44.29545690872456, 135.84375 64.125 M135.84375 64.125 C45.665795695573536 64.125, -44.51215860885293 64.125, -135.84375 64.125 M135.84375 64.125 C38.937399447400026 64.125, -57.96895110519995 64.125, -135.84375 64.125 M-135.84375 64.125 C-135.84375 50.82737519041432, -135.84375 37.529750380828645, -135.84375 21.375 M-135.84375 64.125 C-135.84375 48.06322819145768, -135.84375 32.00145638291536, -135.84375 21.375" stroke="#13540c" stroke-width="1.3" fill="none" stroke-dasharray="0 0"/></g><g style="" class="row-rect-even"><path d="M-135.84375 64.125 L135.84375 64.125 L135.84375 106.875 L-135.84375 106.875" stroke="none" stroke-width="0" fill="hsl(78.1578947368, 58.4615384615%, 94.5098039216%)"/><path d="M-135.84375 64.125 C-79.21931677379027 64.125, -22.594883547580537 64.125, 135.84375 64.125 M-135.84375 64.125 C-67.13194766508317 64.125, 1.5798546698336509 64.125, 135.84375 64.125 M135.84375 64.125 C135.84375 77.2306887158571, 135.84375 90.33637743171418, 135.84375 106.875 M135.84375 64.125 C135.84375 77.66160620908623, 135.84375 91.19821241817246, 135.84375 106.875 M135.84375 106.875 C40.00332717506454 106.875, -55.83709564987092 106.875, -135.84375 106.875 M135.84375 106.875 C35.81703247134857 106.875, -64.20968505730286 106.875, -135.84375 106.875 M-135.84375 106.875 C-135.84375 90.1247764023417, -135.84375 73.37455280468339, -135.84375 64.125 M-135.84375 106.875 C-135.84375 90.79362106940027, -135.84375 74.71224213880055, -135.84375 64.125" stroke="#13540c" stroke-width="1.3" fill="none" stroke-dasharray="0 0"/></g><g class="label name" transform="translate(-32.7578125, -97.5)" style=""><foreignObject width="65.515625" height="24"><div xmlns="http://www.w3.org/1999/xhtml" style="display: table-cell; white-space: nowrap; line-height: 1.5; max-width: 163px; text-align: start;"><span class="nodeLabel"><p>Borrower</p></span></div></foreignObject></g><g class="label attribute-type" transform="translate(-123.34375, -54.75)" style=""><foreignObject width="19.546875" height="24"><div xmlns="http://www.w3.org/1999/xhtml" style="display: table-cell; white-space: nowrap; line-height: 1.5; max-width: 118px; text-align: start;"><span class="nodeLabel"><p>Int</p></span></div></foreignObject></g><g class="label attribute-name" transform="translate(-29.859375, -54.75)" style=""><foreignObject width="13.484375" height="24"><div xmlns="http://www.w3.org/1999/xhtml" style="display: table-cell; white-space: nowrap; line-height: 1.5; max-width: 113px; text-align: start;"><span class="nodeLabel"><p>id</p></span></div></foreignObject></g><g class="label attribute-keys" transform="translate(101.375, -54.75)" style=""><foreignObject width="0" height="0"><div xmlns="http://www.w3.org/1999/xhtml" style="display: table-cell; white-space: nowrap; line-height: 1.5; max-width: 100px; text-align: start;"><span class="nodeLabel"></span></div></foreignObject></g><g class="label attribute-comment" transform="translate(101.375, -54.75)" style=""><foreignObject width="21.96875" height="24"><div xmlns="http://www.w3.org/1999/xhtml" style="display: table-cell; white-space: nowrap; line-height: 1.5; max-width: 122px; text-align: start;"><span class="nodeLabel"><p>🗝️</p></span></div></foreignObject></g><g class="label attribute-type" transform="translate(-123.34375, -12)" style=""><foreignObject width="41.59375" height="24"><div xmlns="http://www.w3.org/1999/xhtml" style="display: table-cell; white-space: nowrap; line-height: 1.5; max-width: 139px; text-align: start;"><span class="nodeLabel"><p>String</p></span></div></foreignObject></g><g class="label attribute-name" transform="translate(-29.859375, -12)" style=""><foreignObject width="39.15625" height="24"><div xmlns="http://www.w3.org/1999/xhtml" style="display: table-cell; white-space: nowrap; line-height: 1.5; max-width: 136px; text-align: start;"><span class="nodeLabel"><p>name</p></span></div></foreignObject></g><g class="label attribute-keys" transform="translate(101.375, -12)" style=""><foreignObject width="0" height="0"><div xmlns="http://www.w3.org/1999/xhtml" style="display: table-cell; white-space: nowrap; line-height: 1.5; max-width: 100px; text-align: start;"><span class="nodeLabel"></span></div></foreignObject></g><g class="label attribute-comment" transform="translate(101.375, -12)" style=""><foreignObject width="0" height="0"><div xmlns="http://www.w3.org/1999/xhtml" style="display: table-cell; white-space: nowrap; line-height: 1.5; max-width: 100px; text-align: start;"><span class="nodeLabel"></span></div></foreignObject></g><g class="label attribute-type" transform="translate(-123.34375, 30.75)" style=""><foreignObject width="41.59375" height="24"><div xmlns="http://www.w3.org/1999/xhtml" style="display: table-cell; white-space: nowrap; line-height: 1.5; max-width: 139px; text-align: start;"><span class="nodeLabel"><p>String</p></span></div></foreignObject></g><g class="label attribute-name" transform="translate(-29.859375, 30.75)" style=""><foreignObject width="39.703125" height="24"><div xmlns="http://www.w3.org/1999/xhtml" style="display: table-cell; white-space: nowrap; line-height: 1.5; max-width: 136px; text-align: start;"><span class="nodeLabel"><p>email</p></span></div></foreignObject></g><g class="label attribute-keys" transform="translate(101.375, 30.75)" style=""><foreignObject width="0" height="0"><div xmlns="http://www.w3.org/1999/xhtml" style="display: table-cell; white-space: nowrap; line-height: 1.5; max-width: 100px; text-align: start;"><span class="nodeLabel"></span></div></foreignObject></g><g class="label attribute-comment" transform="translate(101.375, 30.75)" style=""><foreignObject width="0" height="0"><div xmlns="http://www.w3.org/1999/xhtml" style="display: table-cell; white-space: nowrap; line-height: 1.5; max-width: 100px; text-align: start;"><span class="nodeLabel"></span></div></foreignObject></g><g class="label attribute-type" transform="translate(-123.34375, 73.5)" style=""><foreignObject width="68.484375" height="24"><div xmlns="http://www.w3.org/1999/xhtml" style="display: table-cell; white-space: nowrap; line-height: 1.5; max-width: 164px; text-align: start;"><span class="nodeLabel"><p>DateTime</p></span></div></foreignObject></g><g class="label attribute-name" transform="translate(-29.859375, 73.5)" style=""><foreignObject width="106.234375" height="24"><div xmlns="http://www.w3.org/1999/xhtml" style="display: table-cell; white-space: nowrap; line-height: 1.5; max-width: 194px; text-align: start;"><span class="nodeLabel"><p>registeredDate</p></span></div></foreignObject></g><g class="label attribute-keys" transform="translate(101.375, 73.5)" style=""><foreignObject width="0" height="0"><div xmlns="http://www.w3.org/1999/xhtml" style="display: table-cell; white-space: nowrap; line-height: 1.5; max-width: 100px; text-align: start;"><span class="nodeLabel"></span></div></foreignObject></g><g class="label attribute-comment" transform="translate(101.375, 73.5)" style=""><foreignObject width="0" height="0"><div xmlns="http://www.w3.org/1999/xhtml" style="display: table-cell; white-space: nowrap; line-height: 1.5; max-width: 100px; text-align: start;"><span class="nodeLabel"></span></div></foreignObject></g><g class="divider"><path d="M-135.84375 -64.125 C-33.69792397373443 -64.125, 68.44790205253113 -64.125, 135.84375 -64.125 M-135.84375 -64.125 C-67.50054733171635 -64.125, 0.8426553365673044 -64.125, 135.84375 -64.125" stroke="#13540c" stroke-width="1.3" fill="none" stroke-dasharray="0 0"/></g><g class="divider"><path d="M-42.359375 -64.125 C-42.359375 -26.44628749322014, -42.359375 11.23242501355972, -42.359375 106.875 M-42.359375 -64.125 C-42.359375 -7.881589237690228, -42.359375 48.36182152461954, -42.359375 106.875" stroke="#13540c" stroke-width="1.3" fill="none" stroke-dasharray="0 0"/></g><g class="divider"><path d="M88.875 -64.125 C88.875 -16.89428772406876, 88.875 30.33642455186248, 88.875 106.875 M88.875 -64.125 C88.875 -25.5840645088575, 88.875 12.956870982284997, 88.875 106.875" stroke="#13540c" stroke-width="1.3" fill="none" stroke-dasharray="0 0"/></g><g class="divider"><path d="M-135.84375 -64.125 C-29.86255669942912 -64.125, 76.11863660114176 -64.125, 135.84375 -64.125 M-135.84375 -64.125 C-62.89636154076324 -64.125, 10.051026918473525 -64.125, 135.84375 -64.125" stroke="#13540c" stroke-width="1.3" fill="none" stroke-dasharray="0 0"/></g></g><g class="node default" id="entity-Borrowing-2" transform="translate(354.765625, 114.875)"><g style=""><path d="M-124.65625 -106.875 L124.65625 -106.875 L124.65625 106.875 L-124.65625 106.875" stroke="none" stroke-width="0" fill="#cde498"/><path d="M-124.65625 -106.875 C-45.474869471868416 -106.875, 33.70651105626317 -106.875, 124.65625 -106.875 M-124.65625 -106.875 C-72.03322840889034 -106.875, -19.410206817780676 -106.875, 124.65625 -106.875 M124.65625 -106.875 C124.65625 -49.14051418644182, 124.65625 8.59397162711636, 124.65625 106.875 M124.65625 -106.875 C124.65625 -57.148155536396985, 124.65625 -7.421311072793969, 124.65625 106.875 M124.65625 106.875 C35.18067346515913 106.875, -54.29490306968174 106.875, -124.65625 106.875 M124.65625 106.875 C32.49209831301367 106.875, -59.67205337397266 106.875, -124.65625 106.875 M-124.65625 106.875 C-124.65625 46.04857192368781, -124.65625 -14.77785615262438, -124.65625 -106.875 M-124.65625 106.875 C-124.65625 51.06449387470582, -124.65625 -4.746012250588365, -124.65625 -106.875" stroke="#13540c" stroke-width="1.3" fill="none" stroke-dasharray="0 0"/></g><g style="" class="row-rect-odd"><path d="M-124.65625 -64.125 L124.65625 -64.125 L124.65625 -21.375 L-124.65625 -21.375" stroke="none" stroke-width="0" fill="hsl(78.1578947368, 58.4615384615%, 100%)"/><path d="M-124.65625 -64.125 C-35.051957967044416 -64.125, 54.55233406591117 -64.125, 124.65625 -64.125 M-124.65625 -64.125 C-42.24525815483224 -64.125, 40.165733690335514 -64.125, 124.65625 -64.125 M124.65625 -64.125 C124.65625 -55.330180104736016, 124.65625 -46.53536020947203, 124.65625 -21.375 M124.65625 -64.125 C124.65625 -48.70784524471323, 124.65625 -33.29069048942647, 124.65625 -21.375 M124.65625 -21.375 C66.61936526660733 -21.375, 8.582480533214678 -21.375, -124.65625 -21.375 M124.65625 -21.375 C53.08810580090646 -21.375, -18.480038398187077 -21.375, -124.65625 -21.375 M-124.65625 -21.375 C-124.65625 -32.5591460326508, -124.65625 -43.7432920653016, -124.65625 -64.125 M-124.65625 -21.375 C-124.65625 -36.58054740919513, -124.65625 -51.786094818390254, -124.65625 -64.125" stroke="#13540c" stroke-width="1.3" fill="none" stroke-dasharray="0 0"/></g><g style="" class="row-rect-even"><path d="M-124.65625 -21.375 L124.65625 -21.375 L124.65625 21.375 L-124.65625 21.375" stroke="none" stroke-width="0" fill="hsl(78.1578947368, 58.4615384615%, 94.5098039216%)"/><path d="M-124.65625 -21.375 C-36.4561161336313 -21.375, 51.744017732737404 -21.375, 124.65625 -21.375 M-124.65625 -21.375 C-61.80739906811931 -21.375, 1.041451863761381 -21.375, 124.65625 -21.375 M124.65625 -21.375 C124.65625 -12.467820843753914, 124.65625 -3.560641687507829, 124.65625 21.375 M124.65625 -21.375 C124.65625 -6.7887989637811845, 124.65625 7.797402072437631, 124.65625 21.375 M124.65625 21.375 C45.09417459403258 21.375, -34.46790081193484 21.375, -124.65625 21.375 M124.65625 21.375 C37.70841374273223 21.375, -49.23942251453553 21.375, -124.65625 21.375 M-124.65625 21.375 C-124.65625 6.746669157894466, -124.65625 -7.881661684211068, -124.65625 -21.375 M-124.65625 21.375 C-124.65625 10.034140117694683, -124.65625 -1.3067197646106337, -124.65625 -21.375" stroke="#13540c" stroke-width="1.3" fill="none" stroke-dasharray="0 0"/></g><g style="" class="row-rect-odd"><path d="M-124.65625 21.375 L124.65625 21.375 L124.65625 64.125 L-124.65625 64.125" stroke="none" stroke-width="0" fill="hsl(78.1578947368, 58.4615384615%, 100%)"/><path d="M-124.65625 21.375 C-39.05647559354286 21.375, 46.54329881291429 21.375, 124.65625 21.375 M-124.65625 21.375 C-34.01036573293176 21.375, 56.63551853413648 21.375, 124.65625 21.375 M124.65625 21.375 C124.65625 30.600378221654935, 124.65625 39.82575644330987, 124.65625 64.125 M124.65625 21.375 C124.65625 32.95094863427349, 124.65625 44.52689726854698, 124.65625 64.125 M124.65625 64.125 C46.963642519511296 64.125, -30.728964960977407 64.125, -124.65625 64.125 M124.65625 64.125 C25.055555801450353 64.125, -74.5451383970993 64.125, -124.65625 64.125 M-124.65625 64.125 C-124.65625 51.46918445130123, -124.65625 38.81336890260246, -124.65625 21.375 M-124.65625 64.125 C-124.65625 48.250976847268625, -124.65625 32.37695369453725, -124.65625 21.375" stroke="#13540c" stroke-width="1.3" fill="none" stroke-dasharray="0 0"/></g><g style="" class="row-rect-even"><path d="M-124.65625 64.125 L124.65625 64.125 L124.65625 106.875 L-124.65625 106.875" stroke="none" stroke-width="0" fill="hsl(78.1578947368, 58.4615384615%, 94.5098039216%)"/><path d="M-124.65625 64.125 C-53.44016072799403 64.125, 17.775928544011947 64.125, 124.65625 64.125 M-124.65625 64.125 C-25.802973176447594 64.125, 73.05030364710481 64.125, 124.65625 64.125 M124.65625 64.125 C124.65625 75.80642473333515, 124.65625 87.4878494666703, 124.65625 106.875 M124.65625 64.125 C124.65625 79.89632965133129, 124.65625 95.66765930266257, 124.65625 106.875 M124.65625 106.875 C64.12426819765167 106.875, 3.592286395303333 106.875, -124.65625 106.875 M124.65625 106.875 C52.69458275654007 106.875, -19.267084486919856 106.875, -124.65625 106.875 M-124.65625 106.875 C-124.65625 93.52564905353876, -124.65625 80.17629810707753, -124.65625 64.125 M-124.65625 106.875 C-124.65625 96.22671874666518, -124.65625 85.57843749333037, -124.65625 64.125" stroke="#13540c" stroke-width="1.3" fill="none" stroke-dasharray="0 0"/></g><g class="label name" transform="translate(-35.953125, -97.5)" style=""><foreignObject width="71.90625" height="24"><div xmlns="http://www.w3.org/1999/xhtml" style="display: table-cell; white-space: nowrap; line-height: 1.5; max-width: 170px; text-align: start;"><span class="nodeLabel"><p>Borrowing</p></span></div></foreignObject></g><g class="label attribute-type" transform="translate(-112.15625, -54.75)" style=""><foreignObject width="19.546875" height="24"><div xmlns="http://www.w3.org/1999/xhtml" style="display: table-cell; white-space: nowrap; line-height: 1.5; max-width: 118px; text-align: start;"><span class="nodeLabel"><p>Int</p></span></div></foreignObject></g><g class="label attribute-name" transform="translate(-18.671875, -54.75)" style=""><foreignObject width="13.484375" height="24"><div xmlns="http://www.w3.org/1999/xhtml" style="display: table-cell; white-space: nowrap; line-height: 1.5; max-width: 113px; text-align: start;"><span class="nodeLabel"><p>id</p></span></div></foreignObject></g><g class="label attribute-keys" transform="translate(90.1875, -54.75)" style=""><foreignObject width="0" height="0"><div xmlns="http://www.w3.org/1999/xhtml" style="display: table-cell; white-space: nowrap; line-height: 1.5; max-width: 100px; text-align: start;"><span class="nodeLabel"></span></div></foreignObject></g><g class="label attribute-comment" transform="translate(90.1875, -54.75)" style=""><foreignObject width="21.96875" height="24"><div xmlns="http://www.w3.org/1999/xhtml" style="display: table-cell; white-space: nowrap; line-height: 1.5; max-width: 122px; text-align: start;"><span class="nodeLabel"><p>🗝️</p></span></div></foreignObject></g><g class="label attribute-type" transform="translate(-112.15625, -12)" style=""><foreignObject width="68.484375" height="24"><div xmlns="http://www.w3.org/1999/xhtml" style="display: table-cell; white-space: nowrap; line-height: 1.5; max-width: 164px; text-align: start;"><span class="nodeLabel"><p>DateTime</p></span></div></foreignObject></g><g class="label attribute-name" transform="translate(-18.671875, -12)" style=""><foreignObject width="83.859375" height="24"><div xmlns="http://www.w3.org/1999/xhtml" style="display: table-cell; white-space: nowrap; line-height: 1.5; max-width: 179px; text-align: start;"><span class="nodeLabel"><p>borrowedAt</p></span></div></foreignObject></g><g class="label attribute-keys" transform="translate(90.1875, -12)" style=""><foreignObject width="0" height="0"><div xmlns="http://www.w3.org/1999/xhtml" style="display: table-cell; white-space: nowrap; line-height: 1.5; max-width: 100px; text-align: start;"><span class="nodeLabel"></span></div></foreignObject></g><g class="label attribute-comment" transform="translate(90.1875, -12)" style=""><foreignObject width="0" height="0"><div xmlns="http://www.w3.org/1999/xhtml" style="display: table-cell; white-space: nowrap; line-height: 1.5; max-width: 100px; text-align: start;"><span class="nodeLabel"></span></div></foreignObject></g><g class="label attribute-type" transform="translate(-112.15625, 30.75)" style=""><foreignObject width="68.484375" height="24"><div xmlns="http://www.w3.org/1999/xhtml" style="display: table-cell; white-space: nowrap; line-height: 1.5; max-width: 164px; text-align: start;"><span class="nodeLabel"><p>DateTime</p></span></div></foreignObject></g><g class="label attribute-name" transform="translate(-18.671875, 30.75)" style=""><foreignObject width="59.671875" height="24"><div xmlns="http://www.w3.org/1999/xhtml" style="display: table-cell; white-space: nowrap; line-height: 1.5; max-width: 153px; text-align: start;"><span class="nodeLabel"><p>dueDate</p></span></div></foreignObject></g><g class="label attribute-keys" transform="translate(90.1875, 30.75)" style=""><foreignObject width="0" height="0"><div xmlns="http://www.w3.org/1999/xhtml" style="display: table-cell; white-space: nowrap; line-height: 1.5; max-width: 100px; text-align: start;"><span class="nodeLabel"></span></div></foreignObject></g><g class="label attribute-comment" transform="translate(90.1875, 30.75)" style=""><foreignObject width="0" height="0"><div xmlns="http://www.w3.org/1999/xhtml" style="display: table-cell; white-space: nowrap; line-height: 1.5; max-width: 100px; text-align: start;"><span class="nodeLabel"></span></div></foreignObject></g><g class="label attribute-type" transform="translate(-112.15625, 73.5)" style=""><foreignObject width="68.484375" height="24"><div xmlns="http://www.w3.org/1999/xhtml" style="display: table-cell; white-space: nowrap; line-height: 1.5; max-width: 164px; text-align: start;"><span class="nodeLabel"><p>DateTime</p></span></div></foreignObject></g><g class="label attribute-name" transform="translate(-18.671875, 73.5)" style=""><foreignObject width="78.421875" height="24"><div xmlns="http://www.w3.org/1999/xhtml" style="display: table-cell; white-space: nowrap; line-height: 1.5; max-width: 171px; text-align: start;"><span class="nodeLabel"><p>returnedAt</p></span></div></foreignObject></g><g class="label attribute-keys" transform="translate(90.1875, 73.5)" style=""><foreignObject width="0" height="0"><div xmlns="http://www.w3.org/1999/xhtml" style="display: table-cell; white-space: nowrap; line-height: 1.5; max-width: 100px; text-align: start;"><span class="nodeLabel"></span></div></foreignObject></g><g class="label attribute-comment" transform="translate(90.1875, 73.5)" style=""><foreignObject width="21.96875" height="24"><div xmlns="http://www.w3.org/1999/xhtml" style="display: table-cell; white-space: nowrap; line-height: 1.5; max-width: 122px; text-align: start;"><span class="nodeLabel"><p>❓</p></span></div></foreignObject></g><g class="divider"><path d="M-124.65625 -64.125 C-37.7576997489919 -64.125, 49.14085050201621 -64.125, 124.65625 -64.125 M-124.65625 -64.125 C-71.48595729983008 -64.125, -18.315664599660153 -64.125, 124.65625 -64.125" stroke="#13540c" stroke-width="1.3" fill="none" stroke-dasharray="0 0"/></g><g class="divider"><path d="M-31.171875 -64.125 C-31.171875 -6.233976186935834, -31.171875 51.65704762612833, -31.171875 106.875 M-31.171875 -64.125 C-31.171875 -10.34250117146329, -31.171875 43.43999765707342, -31.171875 106.875" stroke="#13540c" stroke-width="1.3" fill="none" stroke-dasharray="0 0"/></g><g class="divider"><path d="M77.6875 -64.125 C77.6875 -21.155589348980463, 77.6875 21.813821302039074, 77.6875 106.875 M77.6875 -64.125 C77.6875 -4.6029079182328445, 77.6875 54.91918416353431, 77.6875 106.875" stroke="#13540c" stroke-width="1.3" fill="none" stroke-dasharray="0 0"/></g><g class="divider"><path d="M-124.65625 -64.125 C-63.06390683200671 -64.125, -1.4715636640134164 -64.125, 124.65625 -64.125 M-124.65625 -64.125 C-71.43435952857789 -64.125, -18.212469057155772 -64.125, 124.65625 -64.125" stroke="#13540c" stroke-width="1.3" fill="none" stroke-dasharray="0 0"/></g></g></g></g></g></svg>